<svg xmlns="http://www.w3.org/2000/svg" viewBox="0 0 102 106" width="102" height="106"><path fill="#000" fill-rule="evenodd" d="M64.0,37.2 L60.0,35.2 L54.2,34.8 L45.5,36.2 L40.8,38.0 L39.0,39.2 L47.0,37.8 L54.0,37.5 L58.8,38.2 L60.0,38.8 L62.5,40.8 L64.5,44.8 L64.8,51.5 L62.5,59.8 L61.0,63.0 L57.2,69.2 L53.8,73.8 L45.8,82.0 L36.0,89.8 L26.2,95.2 L18.5,97.8 L16.8,98.0 L12.0,97.8 L10.0,97.0 L7.5,94.8 L6.5,92.8 L5.8,88.8 L5.2,89.8 L5.5,93.8 L7.0,96.8 L8.8,98.5 L12.5,100.2 L17.5,100.8 L24.2,99.8 L32.2,96.8 L38.5,93.5 L40.8,91.8 L41.2,91.8 L48.2,86.5 L57.8,77.0 L62.0,71.2 L65.8,64.2 L67.0,61.0 L68.8,53.8 L68.8,51.2 L69.0,51.0 L68.8,46.0 L68.0,43.0 L66.2,39.8Z M95.8,9.2 L93.2,8.0 L88.5,7.2 L80.8,7.2 L71.5,9.0 L63.0,12.0 L57.8,14.5 L48.2,20.2 L42.5,24.8 L41.8,25.0 L34.8,31.0 L27.0,38.5 L22.5,44.8 L20.0,49.8 L19.0,53.2 L18.2,54.5 L17.5,58.2 L17.8,64.2 L18.2,66.2 L19.5,68.8 L22.2,71.8 L25.5,73.8 L26.2,73.8 L27.8,74.5 L31.8,74.8 L34.0,74.5 L39.2,73.0 L44.5,70.5 L48.0,68.2 L50.8,66.0 L53.2,63.2 L52.8,63.2 L48.2,66.5 L43.0,69.2 L37.2,71.2 L34.8,71.8 L28.5,71.5 L25.5,70.0 L23.2,67.8 L21.8,64.2 L22.0,57.5 L23.0,54.5 L25.2,49.8 L30.2,42.5 L34.0,39.0 L38.5,36.0 L40.2,35.5 L43.0,34.0 L50.8,31.8 L56.2,31.0 L61.2,31.2 L64.2,32.0 L66.8,33.2 L69.0,35.2 L70.2,35.0 L95.2,10.2Z"/></svg>